<mxfile host="app.diagrams.net" modified="2022-01-20T18:27:27.035Z" agent="5.0 (Windows NT 10.0; Win64; x64) AppleWebKit/537.36 (KHTML, like Gecko) Chrome/97.0.4692.71 Safari/537.36" etag="T_97Vx12i6C9tu4hacfY" version="16.4.3" type="github">
  <diagram id="Xb4SCJyPkJVVOU9J1qP-" name="Page-1">
    <mxGraphModel dx="3547" dy="2577" grid="1" gridSize="10" guides="1" tooltips="1" connect="1" arrows="1" fold="1" page="1" pageScale="1" pageWidth="850" pageHeight="1100" math="0" shadow="0">
      <root>
        <mxCell id="0" />
        <mxCell id="1" parent="0" />
        <mxCell id="sbGjOyIYBSfB6dVgzgdZ-61" value="&lt;br&gt;&lt;br&gt;Vote" style="shape=singleArrow;direction=north;whiteSpace=wrap;html=1;fontSize=30;" vertex="1" parent="1">
          <mxGeometry x="320" y="2568" width="170" height="270" as="geometry" />
        </mxCell>
        <mxCell id="sbGjOyIYBSfB6dVgzgdZ-62" value="&lt;br&gt;Verification Request and&amp;nbsp;&lt;br&gt;Vote" style="shape=singleArrow;direction=north;whiteSpace=wrap;html=1;fontSize=30;" vertex="1" parent="1">
          <mxGeometry x="-15" y="2360" width="170" height="420" as="geometry" />
        </mxCell>
        <mxCell id="sbGjOyIYBSfB6dVgzgdZ-58" value="&lt;br&gt;&lt;br&gt;Vote" style="shape=singleArrow;direction=north;whiteSpace=wrap;html=1;fontSize=30;" vertex="1" parent="1">
          <mxGeometry x="850" y="2380" width="170" height="300" as="geometry" />
        </mxCell>
        <mxCell id="sbGjOyIYBSfB6dVgzgdZ-57" value="Candidate&lt;br&gt;list" style="shape=singleArrow;direction=south;whiteSpace=wrap;html=1;fontSize=30;" vertex="1" parent="1">
          <mxGeometry x="750" y="2368" width="150" height="320" as="geometry" />
        </mxCell>
        <mxCell id="sbGjOyIYBSfB6dVgzgdZ-9" value="" style="ellipse;shape=cloud;whiteSpace=wrap;html=1;" vertex="1" parent="1">
          <mxGeometry x="-650" y="250" width="2080" height="1670" as="geometry" />
        </mxCell>
        <mxCell id="sbGjOyIYBSfB6dVgzgdZ-3" value="&lt;font style=&quot;font-size: 21px&quot;&gt;POLL&amp;nbsp;&lt;br&gt;CREATION&lt;/font&gt;" style="rounded=0;whiteSpace=wrap;html=1;rotation=90;" vertex="1" parent="1">
          <mxGeometry x="-5" y="100" width="270" height="150" as="geometry" />
        </mxCell>
        <mxCell id="sbGjOyIYBSfB6dVgzgdZ-5" value="" style="shape=flexArrow;endArrow=classic;html=1;rounded=0;exitX=1;exitY=0.75;exitDx=0;exitDy=0;entryX=0.551;entryY=0.135;entryDx=0;entryDy=0;entryPerimeter=0;" edge="1" parent="1" target="sbGjOyIYBSfB6dVgzgdZ-9">
          <mxGeometry width="50" height="50" relative="1" as="geometry">
            <mxPoint x="508.75" y="315" as="sourcePoint" />
            <mxPoint x="380" y="280" as="targetPoint" />
          </mxGeometry>
        </mxCell>
        <mxCell id="sbGjOyIYBSfB6dVgzgdZ-7" value="" style="shape=flexArrow;endArrow=classic;html=1;rounded=0;exitX=0.5;exitY=0;exitDx=0;exitDy=0;entryX=0.5;entryY=1;entryDx=0;entryDy=0;endWidth=37.142857142857146;endSize=11.885714285714286;" edge="1" parent="1" source="sbGjOyIYBSfB6dVgzgdZ-3">
          <mxGeometry width="50" height="50" relative="1" as="geometry">
            <mxPoint x="168.97000000000003" y="210.96000000000004" as="sourcePoint" />
            <mxPoint x="467.5" y="175" as="targetPoint" />
            <Array as="points">
              <mxPoint x="320" y="175" />
            </Array>
          </mxGeometry>
        </mxCell>
        <mxCell id="sbGjOyIYBSfB6dVgzgdZ-11" value="Vote Block" style="rounded=0;whiteSpace=wrap;html=1;" vertex="1" parent="1">
          <mxGeometry x="10" y="1140" width="120" height="60" as="geometry" />
        </mxCell>
        <mxCell id="sbGjOyIYBSfB6dVgzgdZ-12" value="Vote Block" style="rounded=0;whiteSpace=wrap;html=1;" vertex="1" parent="1">
          <mxGeometry x="820" y="1140" width="120" height="60" as="geometry" />
        </mxCell>
        <mxCell id="sbGjOyIYBSfB6dVgzgdZ-15" value="" style="shape=flexArrow;endArrow=classic;html=1;rounded=0;exitX=0.61;exitY=0.185;exitDx=0;exitDy=0;entryX=1;entryY=0.25;entryDx=0;entryDy=0;exitPerimeter=0;" edge="1" parent="1" source="sbGjOyIYBSfB6dVgzgdZ-9">
          <mxGeometry width="50" height="50" relative="1" as="geometry">
            <mxPoint x="347.5" y="210" as="sourcePoint" />
            <mxPoint x="591.25" y="315" as="targetPoint" />
          </mxGeometry>
        </mxCell>
        <mxCell id="sbGjOyIYBSfB6dVgzgdZ-16" value="" style="endArrow=none;html=1;rounded=0;fontSize=30;exitX=0.75;exitY=1;exitDx=0;exitDy=0;entryX=0.75;entryY=0;entryDx=0;entryDy=0;" edge="1" parent="1" source="sbGjOyIYBSfB6dVgzgdZ-11" target="sbGjOyIYBSfB6dVgzgdZ-11">
          <mxGeometry width="50" height="50" relative="1" as="geometry">
            <mxPoint x="130" y="1000" as="sourcePoint" />
            <mxPoint x="180" y="950" as="targetPoint" />
          </mxGeometry>
        </mxCell>
        <mxCell id="sbGjOyIYBSfB6dVgzgdZ-17" value="" style="endArrow=none;html=1;rounded=0;fontSize=30;exitX=0.75;exitY=1;exitDx=0;exitDy=0;entryX=0.75;entryY=0;entryDx=0;entryDy=0;" edge="1" parent="1" source="sbGjOyIYBSfB6dVgzgdZ-14" target="sbGjOyIYBSfB6dVgzgdZ-14">
          <mxGeometry width="50" height="50" relative="1" as="geometry">
            <mxPoint x="110" y="1210" as="sourcePoint" />
            <mxPoint x="110" y="1150" as="targetPoint" />
          </mxGeometry>
        </mxCell>
        <mxCell id="sbGjOyIYBSfB6dVgzgdZ-18" value="" style="endArrow=none;html=1;rounded=0;fontSize=30;exitX=1;exitY=0.5;exitDx=0;exitDy=0;entryX=0;entryY=0.5;entryDx=0;entryDy=0;" edge="1" parent="1" source="sbGjOyIYBSfB6dVgzgdZ-11" target="sbGjOyIYBSfB6dVgzgdZ-14">
          <mxGeometry width="50" height="50" relative="1" as="geometry">
            <mxPoint x="120" y="1220" as="sourcePoint" />
            <mxPoint x="120" y="1160" as="targetPoint" />
          </mxGeometry>
        </mxCell>
        <mxCell id="sbGjOyIYBSfB6dVgzgdZ-20" value="" style="endArrow=none;html=1;rounded=0;fontSize=30;exitX=0.75;exitY=1;exitDx=0;exitDy=0;entryX=0.75;entryY=0;entryDx=0;entryDy=0;" edge="1" parent="1" source="sbGjOyIYBSfB6dVgzgdZ-13" target="sbGjOyIYBSfB6dVgzgdZ-13">
          <mxGeometry width="50" height="50" relative="1" as="geometry">
            <mxPoint x="430" y="1210" as="sourcePoint" />
            <mxPoint x="430" y="1150" as="targetPoint" />
          </mxGeometry>
        </mxCell>
        <mxCell id="sbGjOyIYBSfB6dVgzgdZ-22" value="" style="points=[];aspect=fixed;html=1;align=center;shadow=0;dashed=0;image;image=img/lib/allied_telesis/computer_and_terminals/Personal_Computer_with_Server.svg;fontSize=30;" vertex="1" parent="1">
          <mxGeometry x="-350" y="105.5" width="152" height="152" as="geometry" />
        </mxCell>
        <mxCell id="sbGjOyIYBSfB6dVgzgdZ-23" value="Blockchain Node" style="points=[];aspect=fixed;html=1;align=center;shadow=0;dashed=0;image;image=img/lib/allied_telesis/computer_and_terminals/Personal_Computer_with_Server.svg;fontSize=30;" vertex="1" parent="1">
          <mxGeometry x="-67" y="1390" width="152" height="152" as="geometry" />
        </mxCell>
        <mxCell id="sbGjOyIYBSfB6dVgzgdZ-24" value="Blockchain Node" style="points=[];aspect=fixed;html=1;align=center;shadow=0;dashed=0;image;image=img/lib/allied_telesis/computer_and_terminals/Personal_Computer_with_Server.svg;fontSize=30;" vertex="1" parent="1">
          <mxGeometry x="804" y="760" width="152" height="152" as="geometry" />
        </mxCell>
        <mxCell id="sbGjOyIYBSfB6dVgzgdZ-25" value="Blockchain Node" style="points=[];aspect=fixed;html=1;align=center;shadow=0;dashed=0;image;image=img/lib/allied_telesis/computer_and_terminals/Personal_Computer_with_Server.svg;fontSize=30;" vertex="1" parent="1">
          <mxGeometry x="804" y="1390" width="152" height="152" as="geometry" />
        </mxCell>
        <mxCell id="sbGjOyIYBSfB6dVgzgdZ-26" value="RESULT&lt;br&gt;&amp;nbsp;ANOUNCEMENT" style="points=[];aspect=fixed;html=1;align=center;shadow=0;dashed=0;image;image=img/lib/allied_telesis/computer_and_terminals/Personal_Computer_with_Server.svg;fontSize=30;" vertex="1" parent="1">
          <mxGeometry x="832" y="100" width="152" height="152" as="geometry" />
        </mxCell>
        <mxCell id="sbGjOyIYBSfB6dVgzgdZ-27" value="Blockchain Node" style="points=[];aspect=fixed;html=1;align=center;shadow=0;dashed=0;image;image=img/lib/allied_telesis/computer_and_terminals/Personal_Computer_with_Server.svg;fontSize=30;" vertex="1" parent="1">
          <mxGeometry x="-80" y="760" width="152" height="152" as="geometry" />
        </mxCell>
        <mxCell id="sbGjOyIYBSfB6dVgzgdZ-28" value="" style="endArrow=none;html=1;rounded=0;fontSize=30;" edge="1" parent="1" source="sbGjOyIYBSfB6dVgzgdZ-23" target="sbGjOyIYBSfB6dVgzgdZ-25">
          <mxGeometry width="50" height="50" relative="1" as="geometry">
            <mxPoint x="300" y="1440" as="sourcePoint" />
            <mxPoint x="350" y="1390" as="targetPoint" />
          </mxGeometry>
        </mxCell>
        <mxCell id="sbGjOyIYBSfB6dVgzgdZ-30" value="" style="endArrow=none;html=1;rounded=0;fontSize=30;entryX=0.946;entryY=-0.034;entryDx=0;entryDy=0;entryPerimeter=0;" edge="1" parent="1" target="sbGjOyIYBSfB6dVgzgdZ-25">
          <mxGeometry width="50" height="50" relative="1" as="geometry">
            <mxPoint x="940" y="910" as="sourcePoint" />
            <mxPoint x="824" y="1486" as="targetPoint" />
          </mxGeometry>
        </mxCell>
        <mxCell id="sbGjOyIYBSfB6dVgzgdZ-29" value="" style="endArrow=none;html=1;rounded=0;fontSize=30;entryX=0.025;entryY=0.01;entryDx=0;entryDy=0;entryPerimeter=0;" edge="1" parent="1" target="sbGjOyIYBSfB6dVgzgdZ-25">
          <mxGeometry width="50" height="50" relative="1" as="geometry">
            <mxPoint x="100" y="920" as="sourcePoint" />
            <mxPoint x="814" y="1476" as="targetPoint" />
          </mxGeometry>
        </mxCell>
        <mxCell id="sbGjOyIYBSfB6dVgzgdZ-13" value="Vote Block" style="rounded=0;whiteSpace=wrap;html=1;" vertex="1" parent="1">
          <mxGeometry x="580" y="1140" width="120" height="60" as="geometry" />
        </mxCell>
        <mxCell id="sbGjOyIYBSfB6dVgzgdZ-21" value="" style="endArrow=none;html=1;rounded=0;fontSize=30;exitX=0.75;exitY=1;exitDx=0;exitDy=0;entryX=0.75;entryY=0;entryDx=0;entryDy=0;" edge="1" parent="1" source="sbGjOyIYBSfB6dVgzgdZ-12" target="sbGjOyIYBSfB6dVgzgdZ-12">
          <mxGeometry width="50" height="50" relative="1" as="geometry">
            <mxPoint x="440" y="1220" as="sourcePoint" />
            <mxPoint x="440" y="1160" as="targetPoint" />
          </mxGeometry>
        </mxCell>
        <mxCell id="sbGjOyIYBSfB6dVgzgdZ-31" value="" style="endArrow=none;html=1;rounded=0;fontSize=30;exitX=0.097;exitY=-0.02;exitDx=0;exitDy=0;exitPerimeter=0;entryX=0.117;entryY=1.026;entryDx=0;entryDy=0;entryPerimeter=0;" edge="1" parent="1" source="sbGjOyIYBSfB6dVgzgdZ-23" target="sbGjOyIYBSfB6dVgzgdZ-27">
          <mxGeometry width="50" height="50" relative="1" as="geometry">
            <mxPoint x="320" y="1490" as="sourcePoint" />
            <mxPoint x="370" y="1440" as="targetPoint" />
          </mxGeometry>
        </mxCell>
        <mxCell id="sbGjOyIYBSfB6dVgzgdZ-33" value="" style="endArrow=none;html=1;rounded=0;fontSize=30;entryX=0.994;entryY=0.499;entryDx=0;entryDy=0;entryPerimeter=0;exitX=-0.019;exitY=0.455;exitDx=0;exitDy=0;exitPerimeter=0;" edge="1" parent="1" source="sbGjOyIYBSfB6dVgzgdZ-24" target="sbGjOyIYBSfB6dVgzgdZ-27">
          <mxGeometry width="50" height="50" relative="1" as="geometry">
            <mxPoint x="450" y="1490" as="sourcePoint" />
            <mxPoint x="500" y="1440" as="targetPoint" />
          </mxGeometry>
        </mxCell>
        <mxCell id="sbGjOyIYBSfB6dVgzgdZ-32" value="" style="endArrow=none;html=1;rounded=0;fontSize=30;entryX=-0.019;entryY=1.011;entryDx=0;entryDy=0;entryPerimeter=0;exitX=0.989;exitY=-0.034;exitDx=0;exitDy=0;exitPerimeter=0;" edge="1" parent="1" source="sbGjOyIYBSfB6dVgzgdZ-23" target="sbGjOyIYBSfB6dVgzgdZ-24">
          <mxGeometry width="50" height="50" relative="1" as="geometry">
            <mxPoint x="115" y="1496" as="sourcePoint" />
            <mxPoint x="834" y="1496" as="targetPoint" />
          </mxGeometry>
        </mxCell>
        <mxCell id="sbGjOyIYBSfB6dVgzgdZ-10" value="&lt;font style=&quot;font-size: 30px&quot;&gt;Voting Contract&lt;/font&gt;" style="rounded=0;whiteSpace=wrap;html=1;" vertex="1" parent="1">
          <mxGeometry x="240" y="900" width="400" height="170" as="geometry" />
        </mxCell>
        <mxCell id="sbGjOyIYBSfB6dVgzgdZ-37" value="" style="sketch=0;outlineConnect=0;fontColor=#232F3E;gradientColor=none;fillColor=#232F3D;strokeColor=none;dashed=0;verticalLabelPosition=bottom;verticalAlign=top;align=center;html=1;fontSize=12;fontStyle=0;aspect=fixed;pointerEvents=1;shape=mxgraph.aws4.mobile_client;" vertex="1" parent="1">
          <mxGeometry x="20" y="2780" width="41" height="78" as="geometry" />
        </mxCell>
        <mxCell id="sbGjOyIYBSfB6dVgzgdZ-38" value="" style="sketch=0;outlineConnect=0;fontColor=#232F3E;gradientColor=none;fillColor=#232F3D;strokeColor=none;dashed=0;verticalLabelPosition=bottom;verticalAlign=top;align=center;html=1;fontSize=12;fontStyle=0;aspect=fixed;pointerEvents=1;shape=mxgraph.aws4.mobile_client;" vertex="1" parent="1">
          <mxGeometry x="640" y="2858" width="41" height="78" as="geometry" />
        </mxCell>
        <mxCell id="sbGjOyIYBSfB6dVgzgdZ-39" value="" style="sketch=0;outlineConnect=0;fontColor=#232F3E;gradientColor=none;fillColor=#232F3D;strokeColor=none;dashed=0;verticalLabelPosition=bottom;verticalAlign=top;align=center;html=1;fontSize=12;fontStyle=0;aspect=fixed;pointerEvents=1;shape=mxgraph.aws4.mobile_client;" vertex="1" parent="1">
          <mxGeometry x="879" y="2688" width="41" height="78" as="geometry" />
        </mxCell>
        <mxCell id="sbGjOyIYBSfB6dVgzgdZ-40" value="" style="points=[];aspect=fixed;html=1;align=center;shadow=0;dashed=0;image;image=img/lib/allied_telesis/computer_and_terminals/Personal_Computer_with_Server.svg;fontSize=30;" vertex="1" parent="1">
          <mxGeometry x="278" y="2848" width="152" height="152" as="geometry" />
        </mxCell>
        <mxCell id="sbGjOyIYBSfB6dVgzgdZ-41" value="" style="shape=actor;whiteSpace=wrap;html=1;fontSize=30;" vertex="1" parent="1">
          <mxGeometry x="-485" y="80" width="120" height="140" as="geometry" />
        </mxCell>
        <mxCell id="sbGjOyIYBSfB6dVgzgdZ-43" value="&lt;br&gt;VOTER" style="shape=actor;whiteSpace=wrap;html=1;fontSize=30;" vertex="1" parent="1">
          <mxGeometry x="-100" y="2773" width="120" height="140" as="geometry" />
        </mxCell>
        <mxCell id="sbGjOyIYBSfB6dVgzgdZ-44" value="&lt;br&gt;VOTER" style="shape=actor;whiteSpace=wrap;html=1;fontSize=30;" vertex="1" parent="1">
          <mxGeometry x="240" y="3000" width="120" height="140" as="geometry" />
        </mxCell>
        <mxCell id="sbGjOyIYBSfB6dVgzgdZ-45" value="&lt;br&gt;VOTER" style="shape=actor;whiteSpace=wrap;html=1;fontSize=30;" vertex="1" parent="1">
          <mxGeometry x="550" y="2960" width="120" height="140" as="geometry" />
        </mxCell>
        <mxCell id="sbGjOyIYBSfB6dVgzgdZ-46" value="&lt;br&gt;VOTER" style="shape=actor;whiteSpace=wrap;html=1;fontSize=30;" vertex="1" parent="1">
          <mxGeometry x="812" y="2788" width="120" height="140" as="geometry" />
        </mxCell>
        <mxCell id="sbGjOyIYBSfB6dVgzgdZ-14" value="Vote Block" style="rounded=0;whiteSpace=wrap;html=1;" vertex="1" parent="1">
          <mxGeometry x="330" y="1140" width="120" height="60" as="geometry" />
        </mxCell>
        <mxCell id="sbGjOyIYBSfB6dVgzgdZ-49" value="&lt;br&gt;&lt;br&gt;Vote" style="shape=singleArrow;direction=north;whiteSpace=wrap;html=1;fontSize=30;" vertex="1" parent="1">
          <mxGeometry x="570" y="2578" width="170" height="270" as="geometry" />
        </mxCell>
        <mxCell id="sbGjOyIYBSfB6dVgzgdZ-53" value="Candidate&lt;br&gt;list" style="shape=singleArrow;direction=south;whiteSpace=wrap;html=1;fontSize=30;" vertex="1" parent="1">
          <mxGeometry x="470" y="2592" width="150" height="270" as="geometry" />
        </mxCell>
        <mxCell id="sbGjOyIYBSfB6dVgzgdZ-59" value="Candidate&lt;br&gt;list" style="shape=singleArrow;direction=south;whiteSpace=wrap;html=1;fontSize=30;" vertex="1" parent="1">
          <mxGeometry x="220" y="2568" width="150" height="270" as="geometry" />
        </mxCell>
        <mxCell id="sbGjOyIYBSfB6dVgzgdZ-60" value="Candidate&lt;br&gt;list" style="shape=singleArrow;direction=south;whiteSpace=wrap;html=1;fontSize=30;arrowWidth=0.3266666666666606;arrowSize=0.1685185185185185;" vertex="1" parent="1">
          <mxGeometry x="-150" y="2356" width="150" height="410" as="geometry" />
        </mxCell>
        <mxCell id="sbGjOyIYBSfB6dVgzgdZ-63" value="create poll" style="shape=singleArrow;whiteSpace=wrap;html=1;fontSize=30;" vertex="1" parent="1">
          <mxGeometry x="-200" y="100" width="250" height="130" as="geometry" />
        </mxCell>
        <mxCell id="sbGjOyIYBSfB6dVgzgdZ-65" value="CONTRACT HANDLER" style="rounded=0;whiteSpace=wrap;html=1;fontSize=21;rotation=90;" vertex="1" parent="1">
          <mxGeometry x="430" y="105" width="250" height="155" as="geometry" />
        </mxCell>
        <mxCell id="sbGjOyIYBSfB6dVgzgdZ-66" value="&lt;font style=&quot;font-size: 28px&quot;&gt;Verification Server&lt;/font&gt;" style="image;html=1;image=img/lib/clip_art/networking/Cloud_Server_128x128.png;fontSize=21;" vertex="1" parent="1">
          <mxGeometry x="905" y="1710" width="436" height="270" as="geometry" />
        </mxCell>
        <mxCell id="sbGjOyIYBSfB6dVgzgdZ-67" value="aadhar and Wallet Addres&amp;nbsp;" style="strokeWidth=2;html=1;shape=mxgraph.flowchart.database;whiteSpace=wrap;fontSize=21;" vertex="1" parent="1">
          <mxGeometry x="1360" y="1480" width="210" height="210" as="geometry" />
        </mxCell>
        <mxCell id="sbGjOyIYBSfB6dVgzgdZ-68" value="Verification middle ware" style="rounded=0;whiteSpace=wrap;html=1;fontSize=21;" vertex="1" parent="1">
          <mxGeometry x="-55" y="2190" width="960" height="160" as="geometry" />
        </mxCell>
        <mxCell id="sbGjOyIYBSfB6dVgzgdZ-69" value="" style="endArrow=none;html=1;rounded=0;fontSize=28;entryX=0;entryY=0.85;entryDx=0;entryDy=0;entryPerimeter=0;exitX=0.75;exitY=0;exitDx=0;exitDy=0;" edge="1" parent="1" source="sbGjOyIYBSfB6dVgzgdZ-66" target="sbGjOyIYBSfB6dVgzgdZ-67">
          <mxGeometry width="50" height="50" relative="1" as="geometry">
            <mxPoint x="920" y="2130" as="sourcePoint" />
            <mxPoint x="970" y="2080" as="targetPoint" />
          </mxGeometry>
        </mxCell>
      </root>
    </mxGraphModel>
  </diagram>
</mxfile>
